<svg xmlns="http://www.w3.org/2000/svg" xmlns:xlink="http://www.w3.org/1999/xlink" id="prayr-io.fw-Seite%201" viewBox="0 0 1141 262" version="1.1" xml:space="preserve" x="0px" y="0px" width="1141px" height="262px">
	<g id="Ebene%201">
		<path d="M 295.0606 23.0616 C 280.1624 8.7867 259.9764 0 237.724 0 C 201.1715 0 170.1659 23.6744 159.1154 56.5355 C 159.3766 56.7376 159.6508 56.9105 159.9099 57.1191 C 170.4682 65.6454 176.6758 77.6063 178.293 90.2525 C 174.6095 80.6087 168.4602 71.8188 159.9164 64.9234 C 149.5157 56.5301 137.1415 52.2015 124.6227 51.6741 C 89.8083 52.2167 61.3613 78.8622 57.8893 112.9272 C 67.7957 114.275 76.7648 118.4003 83.8295 124.5207 C 75.9897 120.4224 67.0529 118.0079 57.559 117.7345 C 57.5546 117.8966 57.5396 118.0566 57.5353 118.2187 C 56.1922 118.1171 54.8406 118.049 53.4717 118.049 C 48.8857 118.049 44.4356 118.6294 40.1864 119.7156 C 40.1367 119.7296 40.0849 119.7415 40.0352 119.7545 C 39.2277 119.9695 38.4245 120.1922 37.63 120.4386 C 37.5025 120.4786 37.3773 120.524 37.2498 120.564 C 15.6496 127.441 0 147.6775 0 171.58 C 0 201.1447 23.9387 225.1109 53.4717 225.1109 C 57.4661 225.1109 61.3527 224.6591 65.0966 223.828 C 77.149 236.7411 93.2716 245.7862 111.4151 248.9454 C 273.2747 185.2421 293.3139 39.3684 295.0606 23.0616 Z" fill="#ffffff"/>
		<g opacity="0.75">
			<path d="M 137.0486 249.4025 C 147.7689 256.4265 160.575 260.5236 174.3439 260.5236 C 187.6011 260.5236 199.9667 256.7247 210.4365 250.1741 C 222.1565 257.6509 236.0615 262 250.9877 262 C 280.4474 262 305.9536 245.1161 318.4228 220.496 C 352.4987 220.0983 380 192.3363 380 158.1297 C 380 124.3521 353.181 96.8636 319.701 95.7958 C 320.3401 91.6381 320.6748 87.3798 320.6748 83.0426 C 320.6748 59.4536 310.8355 38.1795 295.0606 23.0616 C 293.3139 39.3684 273.2747 185.2421 111.4151 248.9454 C 116.0573 249.7537 120.8247 250.1957 125.7001 250.1957 C 129.552 250.1957 133.337 249.9115 137.0486 249.4025 Z" fill="#ffffff"/>
		</g>
		<g>
			<path d="M 535.939 83.2097 C 524.628 72.0263 509.5667 66.0625 493.5012 66.0625 C 479.1929 66.0625 465.6377 72.7719 454.8438 81.7186 L 454.8438 69.0625 L 433.1563 69.0625 L 433.1563 248.9375 L 454.8438 248.9375 L 454.8438 171.2808 C 465.6377 180.2275 479.1929 186.9375 493.5012 186.9375 C 509.5667 186.9375 524.628 180.973 535.939 169.7896 C 547.5394 158.2316 553.8438 143.075 553.8438 126.9081 C 553.8438 110.7411 547.5394 95.5845 535.939 83.9645 L 535.939 83.2097 L 535.939 83.2097 ZM 493.5012 166.0625 C 472.1643 166.0625 454.8438 148.3798 454.8438 126.9081 C 454.8438 104.8027 472.1643 86.9375 493.5012 86.9375 C 514.8381 86.9375 532.1563 104.8027 532.1563 126.4989 C 532.1563 148.1951 514.8381 166.0625 493.5012 166.0625 L 493.5012 166.0625 Z" fill="#ffffff"/>
			<path d="M 587.8438 69.0625 L 566.1563 69.0625 L 566.1563 183.9375 L 587.8438 183.9375 L 587.8438 122.6173 C 587.8438 103.2663 604.3438 87.9375 624.3438 87.9375 L 629.5938 66.0625 C 616.3438 66.0625 595.0938 72.3561 587.8438 80.4161 L 587.8438 69.0625 L 587.8438 69.0625 Z" fill="#ffffff"/>
			<path d="M 726.1563 81.7186 C 715.5034 72.7719 702.1237 66.0625 688.0007 66.0625 C 672.1433 66.0625 657.277 72.0263 645.809 83.2097 C 634.4608 94.848 628.1563 110.163 628.1563 126.4989 C 628.1563 142.8348 634.4608 158.1498 645.809 169.7896 C 657.277 180.973 672.1433 186.9375 688.0007 186.9375 C 702.1237 186.9375 715.5034 180.2275 726.1563 171.2808 L 726.1563 183.9375 L 747.8438 183.9375 L 747.8438 69.0625 L 726.1563 69.0625 L 726.1563 81.7186 L 726.1563 81.7186 ZM 688.0007 166.0625 C 666.9401 166.0625 649.8438 148.1951 649.8438 126.4989 C 649.8438 104.8027 666.9401 86.9375 688.0007 86.9375 C 709.0613 86.9375 726.1563 104.8027 726.1563 126.4989 C 726.1563 148.1951 709.0613 166.0625 688.0007 166.0625 L 688.0007 166.0625 Z" fill="#ffffff"/>
			<path d="M 869.25 69.0625 L 846 69.0625 L 811.25 155.0006 L 776.5 69.0625 L 753.25 69.0625 L 799.75 183.4815 L 773 248.9375 L 796.25 248.9375 L 869.25 69.0625 L 869.25 69.0625 Z" fill="#ffffff"/>
			<path d="M 900.8438 69.0625 L 879.1563 69.0625 L 879.1563 183.9375 L 900.8438 183.9375 L 900.8438 122.6173 C 900.8438 103.2663 917.3438 87.9375 937.3438 87.9375 L 942.5938 66.0625 C 929.3438 66.0625 908.0938 72.3561 900.8438 80.4161 L 900.8438 69.0625 L 900.8438 69.0625 Z" fill="#ffffff"/>
		</g>
		<g opacity="0.75">
			<path d="M 952.1238 155.4063 C 944.2297 155.4063 938.0625 161.9487 938.0625 169.7498 C 938.0625 177.5509 944.2297 184.0938 952.1238 184.0938 C 959.7711 184.0938 965.9375 177.5509 965.9375 169.7498 C 965.9375 161.9487 959.7711 155.4063 952.1238 155.4063 L 952.1238 155.4063 Z" fill="#ffffff"/>
			<path d="M 993.1238 50.9375 C 1000.7711 50.9375 1006.9375 44.5236 1006.9375 36.8762 C 1006.9375 29.2289 1000.7711 23.0625 993.1238 23.0625 C 985.2297 23.0625 979.0625 29.2289 979.0625 36.8762 C 979.0625 44.5236 985.2297 50.9375 993.1238 50.9375 L 993.1238 50.9375 ZM 983.1563 183.9375 L 1004.8438 183.9375 L 1004.8438 69.0625 L 983.1563 69.0625 L 983.1563 183.9375 L 983.1563 183.9375 Z" fill="#ffffff"/>
			<path d="M 1122.939 83.3066 C 1111.6279 71.9585 1096.5667 65.9063 1080.5012 65.9063 C 1064.4358 65.9063 1049.3744 71.9585 1037.809 83.3066 C 1026.4608 94.9433 1020.1563 110.1511 1020.1563 126.3728 C 1020.1563 142.5945 1026.4608 157.8023 1037.809 169.441 C 1049.3744 180.7892 1064.4358 187.0938 1080.5012 187.0938 C 1096.5667 187.0938 1111.6279 180.7892 1122.939 169.441 C 1134.5393 157.8023 1140.8438 142.5945 1140.8438 126.3728 C 1140.8438 110.1511 1134.5393 94.9433 1122.939 83.3066 L 1122.939 83.3066 ZM 1080.5012 165.4063 C 1059.1643 165.4063 1041.8438 147.9172 1041.8438 126.3728 C 1041.8438 104.8284 1059.1643 87.5938 1080.5012 87.5938 C 1101.8381 87.5938 1119.1563 104.8284 1119.1563 126.3728 C 1119.1563 147.9172 1101.8381 165.4063 1080.5012 165.4063 L 1080.5012 165.4063 Z" fill="#ffffff"/>
		</g>
	</g>
</svg>
